<svg width="136" height="24" viewBox="0 0 136 24" fill="none" xmlns="http://www.w3.org/2000/svg">
<path d="M10.7878 3.10254C11.283 2.09916 12.7138 2.09916 13.209 3.10254L15.567 7.88026L20.8395 8.64641C21.9468 8.80731 22.3889 10.1681 21.5877 10.9491L17.7724 14.668L18.6731 19.9193C18.8622 21.0221 17.7047 21.8631 16.7143 21.3424L11.9984 18.8631L7.28252 21.3424C6.29213 21.8631 5.13459 21.0221 5.32374 19.9193L6.2244 14.668L2.40916 10.9491C1.60791 10.1681 2.05005 8.80731 3.15735 8.64641L8.42988 7.88026L10.7878 3.10254Z" fill="#FFC44D"/>
<path d="M38.7878 3.10254C39.283 2.09916 40.7138 2.09916 41.209 3.10254L43.567 7.88026L48.8395 8.64641C49.9468 8.80731 50.3889 10.1681 49.5877 10.9491L45.7724 14.668L46.6731 19.9193C46.8622 21.0221 45.7047 21.8631 44.7143 21.3424L39.9984 18.8631L35.2825 21.3424C34.2921 21.8631 33.1346 21.0221 33.3237 19.9193L34.2244 14.668L30.4092 10.9491C29.6079 10.1681 30.05 8.80731 31.1573 8.64641L36.4299 7.88026L38.7878 3.10254Z" fill="#FFC44D"/>
<path d="M66.7878 3.10254C67.283 2.09916 68.7138 2.09916 69.209 3.10254L71.567 7.88026L76.8395 8.64641C77.9468 8.80731 78.3889 10.1681 77.5877 10.9491L73.7724 14.668L74.6731 19.9193C74.8622 21.0221 73.7047 21.8631 72.7143 21.3424L67.9984 18.8631L63.2825 21.3424C62.2921 21.8631 61.1346 21.0221 61.3237 19.9193L62.2244 14.668L58.4092 10.9491C57.6079 10.1681 58.05 8.80731 59.1573 8.64641L64.4299 7.88026L66.7878 3.10254Z" fill="#FFC44D"/>
<path d="M94.7878 3.10254C95.283 2.09916 96.7138 2.09916 97.209 3.10254L99.567 7.88026L104.839 8.64641C105.947 8.80731 106.389 10.1681 105.588 10.9491L101.772 14.668L102.673 19.9193C102.862 21.0221 101.705 21.8631 100.714 21.3424L95.9984 18.8631L91.2825 21.3424C90.2921 21.8631 89.1346 21.0221 89.3237 19.9193L90.2244 14.668L86.4092 10.9491C85.6079 10.1681 86.05 8.80731 87.1573 8.64641L92.4299 7.88026L94.7878 3.10254Z" fill="#FFC44D"/>
<path d="M122.788 3.10254C123.283 2.09916 124.714 2.09916 125.209 3.10254L127.567 7.88026L132.839 8.64641C133.947 8.80731 134.389 10.1681 133.588 10.9491L129.772 14.668L130.673 19.9193C130.862 21.0221 129.705 21.8631 128.714 21.3424L123.998 18.8631L119.283 21.3424C118.292 21.8631 117.135 21.0221 117.324 19.9193L118.224 14.668L114.409 10.9491C113.608 10.1681 114.05 8.80731 115.157 8.64641L120.43 7.88026L122.788 3.10254Z" fill="#FFC44D"/>
</svg>
