<svg width="20" height="20" viewBox="0 0 20 20" fill="none" xmlns="http://www.w3.org/2000/svg">
<path d="M16.2393 12L12.9073 15.136C12.7062 15.3253 12.6966 15.6417 12.8859 15.8428C13.0752 16.0439 13.3916 16.0535 13.5927 15.8642L17.8427 11.8642C17.9431 11.7697 18 11.6379 18 11.5001C18 11.3622 17.9431 11.2304 17.8427 11.136L13.5927 7.13602C13.3916 6.94676 13.0752 6.95635 12.8859 7.15744C12.6966 7.35853 12.7062 7.67497 12.9073 7.86422L16.2391 11L5 11C3.89543 11 3 10.1046 3 9V4.5C3 4.22386 2.77614 4 2.5 4C2.22386 4 2 4.22386 2 4.5V9C2 10.6569 3.34315 12 5 12L16.2393 12Z" fill="#101214"/>
</svg>
