<svg width="24" height="24" viewBox="0 0 24 24" fill="none" xmlns="http://www.w3.org/2000/svg">
<path d="M6.50012 12C3.46256 12 1.00012 14.4624 1.00012 17.5C1.00012 20.5376 3.46256 23 6.50012 23C9.53769 23 12.0001 20.5376 12.0001 17.5C12.0001 14.4624 9.53769 12 6.50012 12ZM11.9779 13.9993C12.625 15.0097 13.0001 16.2111 13.0001 17.5C13.0001 19.1442 12.3897 20.6458 11.383 21.7905C12.1852 21.9313 13.0582 22.0011 14.0001 22.0011C16.8896 22.0011 19.1284 21.3445 20.6913 20.0008C21.5199 19.2884 21.9966 18.25 21.9966 17.1572V16.2499C21.9966 15.0073 20.9892 13.9999 19.7466 13.9999L11.9779 13.9993ZM6.50012 13.9992L6.59 14.0073C6.79409 14.0443 6.95502 14.2053 6.99207 14.4094L7.00012 14.4992L7.00047 16.9992L9.50247 17L9.59235 17.0081C9.79644 17.0451 9.95737 17.206 9.99442 17.4101L10.0025 17.5L9.99442 17.5899C9.95737 17.794 9.79644 17.9549 9.59235 17.9919L9.50247 18L6.99947 17.9992L6.99902 20.5035L6.99096 20.5934C6.95392 20.7974 6.79298 20.9584 6.58889 20.9954L6.49902 21.0035L6.40914 20.9954C6.20505 20.9584 6.04412 20.7974 6.00707 20.5934L5.99902 20.5035L5.99947 17.9992L3.49556 18L3.40568 17.9919C3.20159 17.9549 3.04066 17.794 3.00361 17.5899L2.99556 17.5L3.00361 17.4101C3.04066 17.206 3.20159 17.0451 3.40568 17.0081L3.49556 17L6.00047 16.9992L6.00012 14.4992L6.00818 14.4094C6.04522 14.2053 6.20615 14.0443 6.41025 14.0073L6.50012 13.9992ZM13.9998 2.00049C13.6201 2.00049 13.3063 2.28264 13.2566 2.64872L13.2498 2.75049L13.2506 3.49949L9.75012 3.49999C8.50748 3.49999 7.50012 4.50735 7.50012 5.74999V10.2546C7.50012 10.5557 7.55928 10.8431 7.66662 11.1056C8.79191 11.3083 9.81606 11.8018 10.6594 12.5048L18.2501 12.5046C19.4928 12.5046 20.5001 11.4972 20.5001 10.2546V5.74999C20.5001 4.50735 19.4928 3.49999 18.2501 3.49999L14.7506 3.49949L14.7498 2.75049C14.7498 2.40531 14.5166 2.1146 14.1992 2.02728L14.1016 2.00733L13.9998 2.00049ZM16.2508 6.49999C16.9408 6.49999 17.5001 7.05932 17.5001 7.74928C17.5001 8.43925 16.9408 8.99857 16.2508 8.99857C15.5609 8.99857 15.0015 8.43925 15.0015 7.74928C15.0015 7.05932 15.5609 6.49999 16.2508 6.49999ZM11.7581 6.49999C12.4481 6.49999 13.0074 7.05932 13.0074 7.74928C13.0074 8.43925 12.4481 8.99857 11.7581 8.99857C11.0681 8.99857 10.5088 8.43925 10.5088 7.74928C10.5088 7.05932 11.0681 6.49999 11.7581 6.49999Z" fill="#44FDE9"/>
</svg>
