<svg width="21" height="20" viewBox="0 0 21 20" fill="none" xmlns="http://www.w3.org/2000/svg">
<path d="M16.4997 3.29289C16.3122 3.10536 16.0578 3 15.7926 3H5.20682C4.9416 3 4.68725 3.10536 4.49971 3.29289L1.8582 5.9344C1.09595 6.69666 1.63581 8 2.7138 8H18.2856C19.3636 8 19.9035 6.69666 19.1412 5.9344L16.4997 3.29289ZM3.49969 9H17.4997V15C17.4997 16.1046 16.6043 17 15.4997 17H5.49969C4.39513 17 3.49969 16.1046 3.49969 15V9ZM13.4997 13C14.052 13 14.4997 12.5523 14.4997 12C14.4997 11.4477 14.052 11 13.4997 11C12.9474 11 12.4997 11.4477 12.4997 12C12.4997 12.5523 12.9474 13 13.4997 13ZM10.4997 13C11.052 13 11.4997 12.5523 11.4997 12C11.4997 11.4477 11.052 11 10.4997 11C9.94741 11 9.49969 11.4477 9.49969 12C9.49969 12.5523 9.94741 13 10.4997 13ZM7.49969 13C8.05198 13 8.49969 12.5523 8.49969 12C8.49969 11.4477 8.05198 11 7.49969 11C6.94741 11 6.49969 11.4477 6.49969 12C6.49969 12.5523 6.94741 13 7.49969 13Z" fill="#101214"/>
</svg>
