<svg width="24" height="24" viewBox="0 0 24 24" fill="none" xmlns="http://www.w3.org/2000/svg">
<path d="M6.75 19.2502H17.25C18.3546 19.2502 19.25 18.3548 19.25 17.2502V8.18322C19.25 7.89772 19.1889 7.61553 19.0708 7.35561L18.533 6.17239C18.2084 5.45841 17.4965 5 16.7122 5H7.28783C6.50354 5 5.79164 5.45841 5.4671 6.1724L4.92927 7.35561C4.81113 7.61553 4.75 7.89772 4.75 8.18322V17.2502C4.75 18.3548 5.64544 19.2502 6.75 19.2502Z" stroke="#222529" stroke-width="1.5" stroke-linecap="round" stroke-linejoin="round"/>
<path d="M9.5 7.75C9.5 8.99264 8.5 10.25 7 10.25C5.5 10.25 4.75 8.99264 4.75 7.75" stroke="#222529" stroke-width="1.5" stroke-linecap="round" stroke-linejoin="round"/>
<path d="M19.25 7.75C19.25 8.99264 18.5 10.25 17 10.25C15.5 10.25 14.5 8.99264 14.5 7.75" stroke="#222529" stroke-width="1.5" stroke-linecap="round" stroke-linejoin="round"/>
<path d="M14.5 7.75C14.5 8.99264 13.5 10.25 12 10.25C10.5 10.25 9.5 8.99264 9.5 7.75" stroke="#222529" stroke-width="1.5" stroke-linecap="round" stroke-linejoin="round"/>
<path d="M9.75 15.7493C9.75 14.6447 10.6455 13.7493 11.75 13.7493H12.25C13.3546 13.7493 14.25 14.6447 14.25 15.7493V19.2493H9.75V15.7493Z" stroke="#222529" stroke-width="1.5" stroke-linecap="round" stroke-linejoin="round"/>
</svg>
