<svg width="49" height="20" viewBox="0 0 49 20" fill="none" xmlns="http://www.w3.org/2000/svg">
<mask id="mask0_323_11119" style="mask-type:luminance" maskUnits="userSpaceOnUse" x="3" y="6" width="25" height="8">
<path d="M15.8958 8.65638C15.8826 9.69444 16.8209 10.2737 17.5277 10.6181C18.2539 10.9716 18.4978 11.1982 18.4951 11.5141C18.4895 11.9978 17.9158 12.2113 17.3787 12.2196C16.4418 12.2341 15.8972 11.9666 15.4641 11.7643L15.1266 13.3436C15.5611 13.5438 16.3656 13.7185 17.1999 13.7261C19.1582 13.7261 20.4395 12.7594 20.4464 11.2605C20.4541 9.35835 17.8153 9.25302 17.8333 8.40276C17.8395 8.14498 18.0855 7.86987 18.6247 7.79988C18.8914 7.76454 19.6281 7.73752 20.4631 8.12211L20.7908 6.59413C20.3418 6.4306 19.7646 6.27399 19.046 6.27399C17.2027 6.27399 15.9062 7.25383 15.8958 8.65638ZM23.9403 6.40565C23.5828 6.40565 23.2813 6.61423 23.1469 6.93438L20.3494 13.6138H22.3063L22.6958 12.5376H25.0872L25.3131 13.6138H27.0379L25.5328 6.40565H23.9403ZM24.2141 8.35287L24.7788 11.0596H23.2321L24.2141 8.35287ZM13.5231 6.40565L11.9806 13.6138H13.8453L15.3872 6.40565H13.5231ZM10.7644 6.40565L8.82343 11.3118L8.03831 7.14019C7.94615 6.67452 7.58235 6.40565 7.17835 6.40565H4.00529L3.96094 6.61492C4.61232 6.75629 5.3524 6.98427 5.80074 7.22819C6.07516 7.37718 6.15346 7.50745 6.24354 7.86156L7.73064 13.6138H9.70141L12.7227 6.40565H10.7644Z" fill="white"/>
</mask>
<g mask="url(#mask0_323_11119)">
<path d="M1.54688 7.1639L24.2845 -1.20982L29.4572 12.8362L6.71982 21.21" fill="url(#paint0_linear_323_11119)"/>
</g>
<g clip-path="url(#clip0_323_11119)">
<path d="M36.9336 5.80696H42.0674V14.192H36.9336V5.80696Z" fill="#FF5F00"/>
<path d="M37.4655 10C37.4649 9.19261 37.6479 8.39564 38.0008 7.66942C38.3536 6.94319 38.867 6.30675 39.5021 5.80824C38.7155 5.19002 37.7708 4.80559 36.776 4.69888C35.7812 4.59217 34.7765 4.76748 33.8766 5.20479C32.9767 5.64209 32.2181 6.32374 31.6873 7.17183C31.1565 8.01993 30.875 9.00024 30.875 10.0007C30.875 11.0012 31.1565 11.9816 31.6873 12.8296C32.2181 13.6777 32.9767 14.3594 33.8766 14.7967C34.7765 15.234 35.7812 15.4093 36.776 15.3026C37.7708 15.1959 38.7155 14.8115 39.5021 14.1932C38.8668 13.6946 38.3533 13.0579 38.0004 12.3314C37.6476 11.6049 37.4646 10.8076 37.4655 9.99999V10Z" fill="#EB001B"/>
<path d="M47.6178 13.3047V13.1329H47.6919V13.0973H47.5156V13.1329H47.5852V13.3047L47.6178 13.3047ZM47.96 13.3047V13.0974H47.9066L47.8444 13.2455L47.7822 13.0973H47.7289V13.3047H47.7674V13.1477L47.8252 13.2825H47.8652L47.923 13.1477V13.3047H47.96Z" fill="#F79E1B"/>
<path d="M48.128 10.0003C48.1279 11.0009 47.8464 11.9813 47.3155 12.8294C46.7846 13.6775 46.0258 14.3592 45.1258 14.7964C44.2258 15.2337 43.221 15.4089 42.2261 15.302C41.2313 15.1951 40.2866 14.8105 39.5 14.1921C40.1349 13.6931 40.6482 13.0565 41.0011 12.3303C41.354 11.604 41.5374 10.8071 41.5374 9.99959C41.5374 9.19211 41.354 8.39517 41.0011 7.66891C40.6482 6.94265 40.1349 6.30603 39.5 5.80708C40.2866 5.18867 41.2313 4.80404 42.2262 4.69718C43.221 4.59031 44.2259 4.76551 45.1258 5.20276C46.0258 5.64 46.7846 6.32165 47.3155 7.16977C47.8464 8.0179 48.1279 8.99828 48.128 9.99886V10.0003Z" fill="#F79E1B"/>
</g>
<defs>
<linearGradient id="paint0_linear_323_11119" x1="6.05387" y1="13.4995" x2="25.5028" y2="6.33676" gradientUnits="userSpaceOnUse">
<stop stop-color="#222357"/>
<stop offset="1" stop-color="#254AA5"/>
</linearGradient>
<clipPath id="clip0_323_11119">
<rect width="18" height="16" fill="white" transform="translate(30.5 2)"/>
</clipPath>
</defs>
</svg>
