<svg width="25" height="24" viewBox="0 0 25 24" fill="none" xmlns="http://www.w3.org/2000/svg">
<path d="M15.4167 2.375L13.7679 3.61135L16.2085 6.18047C16.3265 6.30467 16.4903 6.375 16.6616 6.375H23V5.125C23 3.39911 21.6009 2 19.875 2H16.5417C16.136 2 15.7412 2.13158 15.4167 2.375ZM15.3023 7.0414L12.2942 3.875H6.125C4.46815 3.875 3.11245 5.16442 3.00665 6.79453L3 7V12.2134C3.39097 12.0752 3.81171 12 4.25 12V10.75C4.25 10.0596 4.80964 9.5 5.5 9.5H10.5C11.1904 9.5 11.75 10.0596 11.75 10.75V12C13.8211 12 15.5 13.6789 15.5 15.75V19.5H19.875C21.6009 19.5 23 18.1009 23 16.375V7.625H16.6616C16.1477 7.625 15.6563 7.41402 15.3023 7.0414ZM11.75 13.25C13.1307 13.25 14.25 14.3693 14.25 15.75V19.5C14.25 20.8807 13.1307 22 11.75 22H4.25C2.86929 22 1.75 20.8807 1.75 19.5V15.75C1.75 14.3693 2.86929 13.25 4.25 13.25H5.5V11.375C5.5 11.0298 5.77982 10.75 6.125 10.75H9.875C10.2202 10.75 10.5 11.0298 10.5 11.375V13.25H11.75ZM9.25 13.25V12H6.75V13.25H9.25Z" fill="#101214"/>
</svg>
