<svg width="24" height="24" viewBox="0 0 24 24" fill="none" xmlns="http://www.w3.org/2000/svg">
<path d="M19.1996 12.1703C19.1996 11.6743 19.1516 11.1623 19.0716 10.6823H12.1436V13.5143H16.1116C15.9516 14.4263 15.4236 15.2263 14.6396 15.7383L17.0076 17.5783C18.3996 16.2823 19.1996 14.3943 19.1996 12.1703Z" fill="#4280EF"/>
<path d="M12.144 19.3383C14.128 19.3383 15.792 18.6823 17.008 17.5623L14.64 15.7383C13.984 16.1863 13.136 16.4423 12.144 16.4423C10.224 16.4423 8.60798 15.1463 8.01598 13.4183L5.58398 15.2903C6.83198 17.7703 9.35998 19.3383 12.144 19.3383Z" fill="#34A353"/>
<path d="M8.01571 13.4023C7.71171 12.4903 7.71171 11.4983 8.01571 10.5863L5.58371 8.69828C4.54371 10.7783 4.54371 13.2263 5.58371 15.2903L8.01571 13.4023Z" fill="#F6B704"/>
<path d="M12.144 7.56228C13.184 7.54628 14.208 7.94628 14.96 8.66628L17.056 6.55428C15.728 5.30628 13.968 4.63428 12.144 4.65028C9.35998 4.65028 6.83198 6.21828 5.58398 8.69828L8.01598 10.5863C8.60798 8.84228 10.224 7.56228 12.144 7.56228Z" fill="#E54335"/>
</svg>
