<svg width="25" height="24" viewBox="0 0 25 24" fill="none" xmlns="http://www.w3.org/2000/svg">
<path d="M13.9508 2.53318C13.1128 1.82618 11.8872 1.82618 11.0492 2.53318L4.29916 8.22772C3.79241 8.65523 3.50001 9.28447 3.50001 9.94747V19.7504C3.50001 20.7169 4.2835 21.5004 5.25 21.5004H8.25C9.2165 21.5004 10 20.7169 10 19.7504V14.7504C10 14.3362 10.3358 14.0004 10.75 14.0004H14.25C14.6642 14.0004 15 14.3362 15 14.7504V19.7504C15 20.7169 15.7835 21.5004 16.75 21.5004H19.75C20.7165 21.5004 21.5 20.7169 21.5 19.7504V9.94747C21.5 9.28447 21.2076 8.65523 20.7008 8.22772L13.9508 2.53318Z" fill="#101214"/>
</svg>
