<svg width="16" height="16" viewBox="0 0 16 16" fill="none" xmlns="http://www.w3.org/2000/svg">
<path d="M13.25 14H2.75C1.92157 14 1.25 13.3284 1.25 12.5V3.5C1.25 2.67157 1.92157 2 2.75 2H10.25C11.0784 2 11.75 2.67157 11.75 3.5V4.25M13.25 14C12.4215 14 11.75 13.3284 11.75 12.5V4.25M13.25 14C14.0784 14 14.75 13.3284 14.75 12.5V5.75C14.75 4.92157 14.0784 4.25 13.25 4.25H11.75M8.75 2H5.75M4.25 11H8.75M4.25 5H8.75V8H4.25V5Z" stroke="#4E5052" stroke-width="1.3" stroke-linecap="round" stroke-linejoin="round"/>
</svg>
