<svg width="17" height="16" viewBox="0 0 17 16" fill="none" xmlns="http://www.w3.org/2000/svg">
<path d="M4.25 10.9987H8.75C9.16421 10.9987 9.5 11.3345 9.5 11.7487C9.5 12.1284 9.21785 12.4422 8.85177 12.4919L8.75 12.4987H4.25C3.83579 12.4987 3.5 12.1629 3.5 11.7487C3.5 11.369 3.78215 11.0552 4.14823 11.0056L4.25 10.9987H8.75H4.25ZM5.71967 5.21967C5.98594 4.9534 6.4026 4.9292 6.69621 5.14705L6.78033 5.21967L10.2803 8.71967C10.5732 9.01256 10.5732 9.48744 10.2803 9.78033C10.0141 10.0466 9.5974 10.0708 9.30379 9.85295L9.21967 9.78033L5.71967 6.28033C5.42678 5.98744 5.42678 5.51256 5.71967 5.21967ZM12.25 3C12.6297 3 12.9435 3.28215 12.9932 3.64823L13 3.75V8.25C13 8.66421 12.6642 9 12.25 9C11.8703 9 11.5565 8.71785 11.5068 8.35177L11.5 8.25V3.75C11.5 3.33579 11.8358 3 12.25 3Z" fill="white"/>
</svg>
