<svg width="25" height="24" viewBox="0 0 25 24" fill="none" xmlns="http://www.w3.org/2000/svg">
<path d="M21 14L11 14.001C10.2207 14.001 9.5796 14.5963 9.50687 15.3566L9.5 15.501V17.5C9.501 21 13.216 22 16 22C18.7221 22 22.3353 21.044 22.4945 17.7296L22.5 17.5V15.5C22.5 14.7207 21.9047 14.0796 21.1444 14.0069L21 14ZM9.012 14H4C3.22071 14 2.5796 14.5944 2.50687 15.3555L2.5 15.5V17C2.501 20.062 5.358 21 7.5 21C8.18 21 8.931 20.904 9.64 20.678C8.98722 19.9277 8.56379 18.9748 8.50663 17.78L8.5 17.5V15.5C8.5 15.0056 8.6493 14.5488 8.89899 14.1616L9.012 14H4H9.012ZM16 3C13.515 3 11.5 5.015 11.5 7.5C11.5 9.985 13.515 12 16 12C18.485 12 20.5 9.985 20.5 7.5C20.5 5.015 18.485 3 16 3ZM7 5C5.067 5 3.5 6.567 3.5 8.5C3.5 10.433 5.067 12 7 12C8.933 12 10.5 10.433 10.5 8.5C10.5 6.567 8.933 5 7 5Z" fill="#101214"/>
</svg>
