<svg width="25" height="24" viewBox="0 0 25 24" fill="none" xmlns="http://www.w3.org/2000/svg">
<path d="M11.4429 7.43101C10.4666 6.45469 8.88372 6.45469 7.90741 7.43101C6.9311 8.40732 6.9311 9.99023 7.90741 10.9665C8.88372 11.9429 10.4666 11.9429 11.4429 10.9665C12.4193 9.99023 12.4193 8.40732 11.4429 7.43101ZM8.96807 8.49167C9.3586 8.10114 9.99176 8.10114 10.3823 8.49167C10.7728 8.88219 10.7728 9.51536 10.3823 9.90588C9.99176 10.2964 9.3586 10.2964 8.96807 9.90588C8.57755 9.51536 8.57755 8.88219 8.96807 8.49167ZM4.80242 2.51214C3.93751 2.78056 3.2602 3.4576 2.99143 4.3224L2.78497 4.98671C2.04089 7.38087 2.68507 9.99018 4.45787 11.763L5.4558 12.7609C4.42843 14.1306 4.53766 16.0826 5.7835 17.3285L7.02603 18.571C7.31893 18.8639 7.7938 18.8639 8.08669 18.571L9.67628 16.9814L9.85308 17.1582C10.5365 17.8416 11.6445 17.8416 12.3279 17.1582L12.815 16.6711L13.6263 18.0615C13.7435 18.2624 13.9472 18.3975 14.1779 18.4273C14.4085 18.4571 14.6399 18.3783 14.8044 18.2138L18.6935 14.3247C18.8569 14.1613 18.9359 13.9317 18.9075 13.7023C18.8791 13.473 18.7466 13.2695 18.5483 13.1509L17.1638 12.3223L17.6345 11.8516C18.3179 11.1682 18.3179 10.0602 17.6345 9.37675L17.4547 9.19694L19.0457 7.60596C19.3386 7.31307 19.3386 6.8382 19.0457 6.5453L17.8032 5.30277C16.5568 4.05646 14.6038 3.94762 13.234 4.97626L12.2382 3.98038C10.466 2.20827 7.85799 1.56385 5.46447 2.30667L4.80242 2.51214ZM4.42384 4.76758C4.54601 4.37449 4.85388 4.06674 5.24702 3.94473L5.90907 3.73927C7.7707 3.16151 9.79918 3.66273 11.1775 5.04104L16.5739 10.4374C16.6715 10.535 16.6715 10.6933 16.5739 10.791L11.2673 16.0975C11.1697 16.1952 11.0114 16.1952 10.9137 16.0975L5.51853 10.7023C4.13968 9.32348 3.63866 7.29401 4.21738 5.43189L4.42384 4.76758ZM17.8101 18.3944C17.5172 18.1015 17.5172 17.6267 17.8101 17.3338C18.103 17.0409 18.5779 17.0409 18.8708 17.3338L21.3457 19.8087C21.6386 20.1015 21.6386 20.5764 21.3457 20.8693C21.0528 21.1622 20.5779 21.1622 20.285 20.8693L17.8101 18.3944ZM19.7547 15.3892C19.4618 15.6821 19.4618 16.157 19.7547 16.4499L20.8154 17.5106C21.1083 17.8035 21.5831 17.8035 21.876 17.5106C22.1689 17.2177 22.1689 16.7428 21.876 16.4499L20.8154 15.3892C20.5225 15.0963 20.0476 15.0963 19.7547 15.3892ZM15.8676 20.3411C15.5747 20.0482 15.5747 19.5733 15.8676 19.2804C16.1605 18.9875 16.6354 18.9875 16.9283 19.2804L17.9869 20.339C18.2798 20.6319 18.2798 21.1067 17.9869 21.3996C17.694 21.6925 17.2191 21.6925 16.9262 21.3997L15.8676 20.3411Z" fill="#101214"/>
</svg>
