<svg width="136" height="24" viewBox="0 0 136 24" fill="none" xmlns="http://www.w3.org/2000/svg">
<path d="M10.7878 3.10263C11.283 2.09926 12.7138 2.09925 13.209 3.10263L15.567 7.88036L20.8395 8.6465C21.9468 8.8074 22.3889 10.1682 21.5877 10.9492L17.7724 14.6681L18.6731 19.9193C18.8622 21.0222 17.7047 21.8632 16.7143 21.3425L11.9984 18.8632L7.28252 21.3425C6.29213 21.8632 5.13459 21.0222 5.32374 19.9193L6.2244 14.6681L2.40916 10.9492C1.60791 10.1682 2.05005 8.8074 3.15735 8.6465L8.42988 7.88036L10.7878 3.10263Z" fill="#F5A300"/>
<path d="M38.7878 3.10263C39.283 2.09926 40.7138 2.09925 41.209 3.10263L43.567 7.88036L48.8395 8.6465C49.9468 8.8074 50.3889 10.1682 49.5877 10.9492L45.7724 14.6681L46.6731 19.9193C46.8622 21.0222 45.7047 21.8632 44.7143 21.3425L39.9984 18.8632L35.2825 21.3425C34.2921 21.8632 33.1346 21.0222 33.3237 19.9193L34.2244 14.6681L30.4092 10.9492C29.6079 10.1682 30.05 8.8074 31.1573 8.6465L36.4299 7.88036L38.7878 3.10263Z" fill="#F5A300"/>
<path d="M66.7878 3.10263C67.283 2.09926 68.7138 2.09925 69.209 3.10263L71.567 7.88036L76.8395 8.6465C77.9468 8.8074 78.3889 10.1682 77.5877 10.9492L73.7724 14.6681L74.6731 19.9193C74.8622 21.0222 73.7047 21.8632 72.7143 21.3425L67.9984 18.8632L63.2825 21.3425C62.2921 21.8632 61.1346 21.0222 61.3237 19.9193L62.2244 14.6681L58.4092 10.9492C57.6079 10.1682 58.05 8.8074 59.1573 8.6465L64.4299 7.88036L66.7878 3.10263Z" fill="#F5A300"/>
<path d="M94.7878 3.10263C95.283 2.09926 96.7138 2.09925 97.209 3.10263L99.567 7.88036L104.839 8.6465C105.947 8.8074 106.389 10.1682 105.588 10.9492L101.772 14.6681L102.673 19.9193C102.862 21.0222 101.705 21.8632 100.714 21.3425L95.9984 18.8632L91.2825 21.3425C90.2921 21.8632 89.1346 21.0222 89.3237 19.9193L90.2244 14.6681L86.4092 10.9492C85.6079 10.1682 86.05 8.8074 87.1573 8.6465L92.4299 7.88036L94.7878 3.10263Z" fill="#F5A300"/>
<path d="M122.788 3.10263C123.283 2.09926 124.714 2.09925 125.209 3.10263L127.567 7.88036L132.839 8.6465C133.947 8.8074 134.389 10.1682 133.588 10.9492L129.772 14.6681L130.673 19.9193C130.862 21.0222 129.705 21.8632 128.714 21.3425L123.998 18.8632L119.283 21.3425C118.292 21.8632 117.135 21.0222 117.324 19.9193L118.224 14.6681L114.409 10.9492C113.608 10.1682 114.05 8.8074 115.157 8.6465L120.43 7.88036L122.788 3.10263Z" fill="#F5A300"/>
</svg>
