<svg width="32" height="32" viewBox="0 0 32 32" fill="none" xmlns="http://www.w3.org/2000/svg">
<path d="M30.0003 12C30.0013 10.5542 29.4538 9.16178 28.4683 8.10387C27.4828 7.04595 26.1326 6.4013 24.6903 6.30001C18.9203 6.00001 13.0603 6.00001 7.33032 6.28001C4.51032 6.28001 2.00032 9.00001 2.00032 12C1.70953 14.8994 1.70953 17.8206 2.00032 20.72C1.99764 22.1258 2.55148 23.4755 3.54082 24.4742C4.53016 25.4729 5.87458 26.0394 7.28032 26.05C10.1803 26.21 13.087 26.29 16.0003 26.29C18.9137 26.29 21.8037 26.2133 24.6703 26.06C26.0711 26.0575 27.4148 25.5048 28.4118 24.5208C29.4089 23.5369 29.9793 22.2006 30.0003 20.8C30.4098 17.881 30.4098 14.9191 30.0003 12ZM28.0003 20.63C27.9954 20.6699 27.9954 20.7102 28.0003 20.75C27.9977 21.1921 27.9079 21.6293 27.736 22.0366C27.5641 22.444 27.3135 22.8133 26.9985 23.1236C26.6836 23.4339 26.3106 23.679 25.9007 23.8448C25.4909 24.0106 25.0524 24.094 24.6103 24.09C18.8542 24.39 13.0864 24.39 7.33032 24.09C6.8848 24.0862 6.44449 23.9937 6.03502 23.8181C5.62555 23.6425 5.25509 23.3872 4.9452 23.0671C4.63532 22.747 4.39219 22.3684 4.22998 21.9535C4.06776 21.5385 3.9897 21.0954 4.00032 20.65C3.71491 17.8339 3.71491 14.9961 4.00032 12.18C4.00482 12.1435 4.00482 12.1065 4.00032 12.07C3.99257 11.1314 4.33433 10.2234 4.9591 9.52289C5.58386 8.82234 6.44692 8.37931 7.38032 8.28001C10.2403 8.15001 13.1203 8.09001 16.0003 8.09001C18.8803 8.09001 21.7603 8.15001 24.6203 8.28001H24.6703C26.3803 8.28001 28.0003 10.12 28.0003 12.07C27.9954 12.1199 27.9954 12.1701 28.0003 12.22C28.3919 15.003 28.3919 17.8271 28.0003 20.61V20.63Z" fill="#222529"/>
<path d="M20.7902 15.51L13.6502 11.83C13.5333 11.7696 13.4056 11.7328 13.2746 11.7217C13.1435 11.7106 13.0115 11.7255 12.8861 11.7654C12.7607 11.8053 12.6445 11.8696 12.5439 11.9544C12.4434 12.0393 12.3606 12.1431 12.3002 12.26C12.2397 12.3769 12.203 12.5045 12.1919 12.6356C12.1808 12.7667 12.1956 12.8987 12.2356 13.024C12.2755 13.1494 12.3397 13.2657 12.4246 13.3662C12.5094 13.4667 12.6133 13.5496 12.7302 13.61L18.1602 16.4L14.1602 18.47V16.4C14.1602 16.1348 14.0548 15.8804 13.8673 15.6929C13.6797 15.5053 13.4254 15.4 13.1602 15.4C12.8949 15.4 12.6406 15.5053 12.453 15.6929C12.2655 15.8804 12.1602 16.1348 12.1602 16.4V20.12C12.1602 20.3852 12.2655 20.6396 12.453 20.8271C12.6406 21.0146 12.8949 21.12 13.1602 21.12C13.3201 21.1206 13.4778 21.0829 13.6202 21.01L20.7602 17.29C20.9232 17.2055 21.0598 17.0778 21.1551 16.9208C21.2504 16.7638 21.3005 16.5836 21.3002 16.4C21.3034 16.2194 21.2578 16.0413 21.168 15.8846C21.0782 15.7279 20.9476 15.5985 20.7902 15.51Z" fill="#222529"/>
</svg>
