<svg width="81" height="17" viewBox="0 0 81 17" fill="none" xmlns="http://www.w3.org/2000/svg">
<path d="M4.72 13.74C4.72 14.52 5 14.74 5.96 14.96V16H0.4V14.96C1.34 14.74 1.62 14.52 1.62 13.74V8.48C1.62 7.88 1.42 7.52 0.68 7.32L0.4 7.22V6.38L4.04 5.54H4.72V7.58C5.68 6.12 6.7 5.54 7.9 5.54C9.62 5.54 10.62 6.38 10.96 7.8C11.94 6.18 13.02 5.54 14.28 5.54C16.4 5.54 17.46 6.86 17.46 8.98V13.74C17.46 14.52 17.74 14.74 18.72 14.96V16H13.36V14.96C14.14 14.76 14.38 14.52 14.38 13.74V9.26C14.38 8.18 13.96 7.48 12.96 7.48C12.46 7.48 11.8 7.74 11.06 8.62L11.08 8.98V13.74C11.08 14.52 11.38 14.74 12.34 14.96V16H6.98V14.96C7.76 14.76 8 14.52 8 13.74V9.26C8 8.18 7.58 7.48 6.6 7.48C6.1 7.48 5.46 7.72 4.72 8.58V13.74ZM24.5863 5.54C27.6263 5.54 28.9463 7.66 28.9663 10.68H22.3463C22.5263 12.86 23.6463 14.12 25.3063 14.12C26.4663 14.12 27.6663 13.48 28.1463 12.48L28.9463 12.82C28.3863 14.66 26.8063 16.28 24.2863 16.28C20.9463 16.28 19.3863 13.76 19.3863 11.16C19.3863 7.72 21.4463 5.54 24.5863 5.54ZM22.3663 9.52H25.9263C25.8463 7.72 25.3063 6.66 24.2463 6.66C23.2063 6.66 22.5263 7.68 22.3663 9.52ZM34.5694 16.28C31.5494 16.28 30.0894 13.96 30.0894 11.24C30.0894 7.72 32.2694 5.54 35.1894 5.54C36.0294 5.54 36.6494 5.74 37.1294 6.02V4.74C37.1294 4.14 36.9494 3.76 36.1894 3.58L35.8894 3.5V2.64L39.5694 1.8H40.2294V13.06C40.2294 13.94 40.4294 14.26 41.0294 14.26H41.6094V15.3L37.7894 16.28H37.1294V14.8C36.5294 15.78 35.5094 16.28 34.5694 16.28ZM33.2694 10.5C33.2694 12.74 34.0094 14.58 35.7094 14.58C36.2894 14.58 36.8294 14.34 37.1294 13.96V9.8C37.1094 7.74 36.6094 6.78 35.3294 6.78C34.1894 6.78 33.2694 8.12 33.2694 10.5ZM46.7122 13.74C46.7122 14.52 46.9922 14.74 47.9522 14.96V16H42.3922V14.96C43.3322 14.74 43.6122 14.52 43.6122 13.74V8.48C43.6122 7.88 43.4122 7.54 42.6722 7.32L42.3922 7.22V6.38L46.0322 5.54H46.7122V13.74ZM43.2522 2.66C43.2522 1.64 44.0522 0.84 45.1722 0.84C46.2922 0.84 47.0922 1.64 47.0922 2.66C47.0922 3.72 46.2922 4.5 45.1722 4.5C44.0522 4.5 43.2522 3.72 43.2522 2.66ZM53.7166 5.54C56.5566 5.54 58.0366 7.08 58.0366 9.36V12.9C58.0366 13.92 58.2366 14.26 59.1966 14.26H59.4166V15.3L55.6166 16.28H54.9366V14.4C54.2966 15.76 53.3166 16.28 51.8166 16.28C50.0366 16.28 48.9166 15.06 48.9166 13.44C48.9166 11.12 51.6566 10.48 53.9366 9.98L54.9366 9.76V9.12C54.9366 7.58 54.2766 6.62 53.1966 6.62C52.2966 6.62 51.7966 7.26 51.7966 8.06C51.7966 8.42 51.9166 8.8 52.1366 9.18L49.4966 10.02C49.2766 9.56 49.1566 9.1 49.1566 8.68C49.1566 6.92 51.0166 5.54 53.7166 5.54ZM52.1366 13.16C52.1366 13.9 52.6166 14.56 53.3566 14.56C54.0966 14.56 54.6366 14.18 54.9366 13.5V10.8L54.2366 10.98C52.7766 11.4 52.1366 12.06 52.1366 13.16ZM68.5798 5.54C71.4198 5.54 72.8998 7.08 72.8998 9.36V12.9C72.8998 13.92 73.0998 14.26 74.0598 14.26H74.2798V15.3L70.4798 16.28H69.7998V14.4C69.1598 15.76 68.1798 16.28 66.6798 16.28C64.8998 16.28 63.7798 15.06 63.7798 13.44C63.7798 11.12 66.5198 10.48 68.7998 9.98L69.7998 9.76V9.12C69.7998 7.58 69.1398 6.62 68.0598 6.62C67.1598 6.62 66.6598 7.26 66.6598 8.06C66.6598 8.42 66.7798 8.8 66.9998 9.18L64.3598 10.02C64.1398 9.56 64.0198 9.1 64.0198 8.68C64.0198 6.92 65.8798 5.54 68.5798 5.54ZM66.9998 13.16C66.9998 13.9 67.4798 14.56 68.2198 14.56C68.9598 14.56 69.4998 14.18 69.7998 13.5V10.8L69.0998 10.98C67.6398 11.4 66.9998 12.06 66.9998 13.16ZM79.4075 13.74C79.4075 14.52 79.6875 14.74 80.6475 14.96V16H75.0875V14.96C76.0275 14.74 76.3075 14.52 76.3075 13.74V8.48C76.3075 7.88 76.1075 7.54 75.3675 7.32L75.0875 7.22V6.38L78.7275 5.54H79.4075V13.74ZM75.9475 2.66C75.9475 1.64 76.7475 0.84 77.8675 0.84C78.9875 0.84 79.7875 1.64 79.7875 2.66C79.7875 3.72 78.9875 4.5 77.8675 4.5C76.7475 4.5 75.9475 3.72 75.9475 2.66Z" fill="#1675E2"/>
</svg>
