
        <svg xmlns="http://www.w3.org/2000/svg" xmlns:xlink="http://www.w3.org/1999/xlink" version="1.1" width="3162.0810405202596" height="710.063374994359" viewBox="0 0 3162.0810405202596 710.063374994359">
			
			<g transform="scale(8.104052026013006) translate(10, 10)">
				<defs id="SvgjsDefs6950"/><g id="SvgjsG6951" featureKey="7KWit6-0" transform="matrix(0.6751456824106009,0,0,0.6751456824106009,-0.6744081706016369,0.6503838928944317)" fill="#000"><g xmlns="http://www.w3.org/2000/svg"><path d="M96.884,38.492c-0.375-1.129-1.517-1.731-2.555-1.35l-28.035-3.764L50.675,4.082   c0-1.152-0.924-2.083-2.056-2.083s-2.056,0.931-2.056,2.083l-15.67,29.404L3.672,37.143c-1.038-0.382-2.184,0.221-2.559,1.35   c-0.364,1.121,0.171,2.333,1.206,2.715l21.596,23.174l-5.478,30.208c-0.663,0.921-0.476,2.239,0.429,2.963   c0.9,0.72,2.18,0.556,2.839-0.358l26.91-13.905l26.91,13.905c0.66,0.914,1.929,1.078,2.829,0.358   c0.911-0.724,1.102-2.042,0.438-2.963l-5.36-29.509l22.249-23.873C96.717,40.825,97.252,39.613,96.884,38.492z"/></g></g><g id="SvgjsG6952" featureKey="ewgXDI-0" transform="matrix(4.715363547349658,0,0,4.715363547349658,80.19032814741149,-27.632024271656288)" fill="#000"><path d="M14.92 9.44 c2.22 0 4.18 1.44 4.18 4.96 l0 5.6 l-3.16 0 l0 -5.5 c0 -1.32 -0.56 -2.32 -2.02 -2.32 c-1.22 0 -2.04 1.08 -2.28 2.04 l0 5.78 l-3.16 0 l0 -5.5 c0 -1.32 -0.82 -2.32 -2.02 -2.32 c-1.3 0 -2.08 0.88 -2.28 2.04 l0 5.78 l-3.16 0 l0 -10.4 l3.16 0 l0 1.9 c0.04 -0.48 1.06 -2.06 3.1 -2.06 c1.5 0 2.94 0.8 3.8 2.26 c0.24 -0.56 1.44 -2.26 3.84 -2.26 z M26.18 9.42 c2.36 0 5.66 1.78 5 6.48 l-7.26 0 c0.36 1.08 1.3 1.64 2.56 1.64 c1.28 0 1.68 -0.28 2.4 -0.58 l1.74 1.68 c-0.92 0.9 -2.16 1.56 -4.26 1.56 c-2.58 0 -5.66 -1.78 -5.66 -5.36 c0 -3.64 3.12 -5.42 5.48 -5.42 z M26.18 12.120000000000001 c-0.9 0 -1.82 0.52 -2.22 1.56 l4.42 0 c-0.32 -1.04 -1.3 -1.56 -2.2 -1.56 z M40.46 5.859999999999999 l3.16 0 l0 5.08 l0 9.06 l-3.16 0 l0 -1.04 c-0.14 0.36 -1.08 1.24 -2.68 1.24 c-2.38 0 -5.12 -1.7 -5.12 -5.42 c0 -3.58 2.74 -5.36 5.12 -5.36 c1.6 0 2.54 0.92 2.68 1.14 l0 -4.7 z M38.24 17.42 c1.3 0 2.36 -0.9 2.36 -2.64 c0 -1.68 -1.06 -2.58 -2.36 -2.58 c-1.36 0 -2.52 0.92 -2.52 2.58 c0 1.72 1.16 2.64 2.52 2.64 z M48.82 5.859999999999999 l0 2.66 l-3.16 0 l0 -2.66 l3.16 0 z M48.82 9.6 l0 10.4 l-3.16 0 l0 -10.4 l3.16 0 z M58.34 9.6 l3.16 0 l0 10.4 l-3.16 0 l0 -1.04 c-0.14 0.36 -1.08 1.24 -2.68 1.24 c-2.38 0 -5.12 -1.7 -5.12 -5.42 c0 -3.58 2.74 -5.36 5.12 -5.36 c1.6 0 2.54 0.92 2.68 1.14 l0 -0.96 z M56.120000000000005 17.42 c1.3 0 2.36 -0.9 2.36 -2.64 c0 -1.68 -1.06 -2.58 -2.36 -2.58 c-1.36 0 -2.52 0.92 -2.52 2.58 c0 1.72 1.16 2.64 2.52 2.64 z"/></g>
			</g>
		</svg>
	