<svg version="1.1" id="Layer_1" xmlns="http://www.w3.org/2000/svg" xmlns:xlink="http://www.w3.org/1999/xlink" x="0px" y="0px"
	 width="100%" viewBox="0 0 180 180" enable-background="new 0 0 180 180" xml:space="preserve">
<path fill="#3773DB" opacity="1.000000" stroke="none" 
	d="
M129.000000,181.000000 
	C86.000000,181.000000 43.500004,181.000000 1.000006,181.000000 
	C1.000004,121.000008 1.000004,61.000011 1.000002,1.000014 
	C60.999989,1.000009 120.999977,1.000009 180.999969,1.000005 
	C180.999985,60.999985 180.999985,120.999969 181.000000,180.999969 
	C163.833328,181.000000 146.666672,181.000000 129.000000,181.000000 
M55.834793,67.432884 
	C45.026154,68.951790 34.209995,70.420921 23.417961,72.049835 
	C21.998516,72.264084 19.902277,73.020836 19.559225,74.020424 
	C19.163504,75.173477 19.985968,77.219437 20.944132,78.273331 
	C23.825195,81.442238 27.177788,84.180893 30.077774,87.334450 
	C36.749943,94.590027 42.942905,102.321640 49.998455,109.171921 
	C52.827904,111.919052 53.493866,114.279327 52.854321,117.645645 
	C50.332027,130.922043 47.758373,144.189209 45.362671,157.488403 
	C45.111248,158.884125 45.544449,160.749588 46.383644,161.840393 
	C46.768551,162.340714 49.064407,161.799164 50.227131,161.206863 
	C62.482365,154.963760 74.649643,148.546906 86.944130,142.383331 
	C88.442818,141.631989 90.884331,141.390121 92.314758,142.088364 
	C105.020226,148.290237 117.587372,154.775024 130.224884,161.117416 
	C131.431732,161.723099 132.839539,161.928360 134.154068,162.319519 
	C134.504257,160.755051 135.372726,159.102356 135.123779,157.639877 
	C132.852249,144.296127 130.574692,130.946762 127.850456,117.691200 
	C127.129204,114.181679 128.225998,112.263168 130.433746,109.954247 
	C140.676651,99.241859 150.784027,88.398903 160.838196,77.508751 
	C161.681244,76.595604 162.101868,74.974754 162.060806,73.703972 
	C162.041718,73.113976 160.494125,72.197411 159.552628,72.069878 
	C146.473312,70.298180 133.360977,68.758583 120.308060,66.817078 
	C118.397964,66.532974 116.038147,64.859406 115.099411,63.159073 
	C107.889618,50.100040 101.021156,36.853031 93.925690,23.729826 
	C93.010437,22.037045 91.401634,20.719248 90.114113,19.227745 
	C88.784065,20.812014 87.126175,22.222111 86.176987,24.008722 
	C79.853943,35.910446 73.461006,47.785011 67.569962,59.901386 
	C65.198082,64.779755 61.968292,67.257729 55.834793,67.432884 
z"/>
<path fill="#FEFEFE" opacity="1.000000" stroke="none" 
	d="
M56.261398,67.365402 
	C61.968292,67.257729 65.198082,64.779755 67.569962,59.901386 
	C73.461006,47.785011 79.853943,35.910446 86.176987,24.008722 
	C87.126175,22.222111 88.784065,20.812014 90.114113,19.227745 
	C91.401634,20.719248 93.010437,22.037045 93.925690,23.729826 
	C101.021156,36.853031 107.889618,50.100040 115.099411,63.159073 
	C116.038147,64.859406 118.397964,66.532974 120.308060,66.817078 
	C133.360977,68.758583 146.473312,70.298180 159.552628,72.069878 
	C160.494125,72.197411 162.041718,73.113976 162.060806,73.703972 
	C162.101868,74.974754 161.681244,76.595604 160.838196,77.508751 
	C150.784027,88.398903 140.676651,99.241859 130.433746,109.954247 
	C128.225998,112.263168 127.129204,114.181679 127.850456,117.691200 
	C130.574692,130.946762 132.852249,144.296127 135.123779,157.639877 
	C135.372726,159.102356 134.504257,160.755051 134.154053,162.319519 
	C132.839539,161.928360 131.431732,161.723099 130.224884,161.117416 
	C117.587372,154.775024 105.020226,148.290237 92.314758,142.088364 
	C90.884331,141.390121 88.442818,141.631989 86.944130,142.383331 
	C74.649643,148.546906 62.482365,154.963760 50.227131,161.206863 
	C49.064407,161.799164 46.768551,162.340714 46.383644,161.840393 
	C45.544449,160.749588 45.111248,158.884125 45.362671,157.488403 
	C47.758373,144.189209 50.332027,130.922043 52.854321,117.645645 
	C53.493866,114.279327 52.827904,111.919052 49.998455,109.171921 
	C42.942905,102.321640 36.749943,94.590027 30.077774,87.334450 
	C27.177788,84.180893 23.825195,81.442238 20.944132,78.273331 
	C19.985968,77.219437 19.163504,75.173477 19.559225,74.020424 
	C19.902277,73.020836 21.998516,72.264084 23.417961,72.049835 
	C34.209995,70.420921 45.026154,68.951790 56.261398,67.365402 
z"/>
</svg>